<svg width="508" height="756" viewBox="0 0 508 756" fill="none" xmlns="http://www.w3.org/2000/svg">
    <g clip-path="url(#clip0_126_18)">
        <line y1="5" x2="674" y2="5" stroke="white" stroke-opacity="0.03" stroke-width="2" />
        <line y1="11" x2="674" y2="11" stroke="white" stroke-opacity="0.03" stroke-width="2" />
        <line y1="17" x2="674" y2="17" stroke="white" stroke-opacity="0.03" stroke-width="2" />
        <line y1="23" x2="674" y2="23" stroke="white" stroke-opacity="0.03" stroke-width="2" />
        <line y1="29" x2="674" y2="29" stroke="white" stroke-opacity="0.03" stroke-width="2" />
        <line y1="35" x2="674" y2="35" stroke="white" stroke-opacity="0.03" stroke-width="2" />
        <line y1="41" x2="674" y2="41" stroke="white" stroke-opacity="0.03" stroke-width="2" />
        <line y1="47" x2="674" y2="47" stroke="white" stroke-opacity="0.03" stroke-width="2" />
        <line y1="53" x2="674" y2="53" stroke="white" stroke-opacity="0.03" stroke-width="2" />
        <line y1="59" x2="674" y2="59" stroke="white" stroke-opacity="0.03" stroke-width="2" />
        <line y1="65" x2="674" y2="65" stroke="white" stroke-opacity="0.03" stroke-width="2" />
        <line y1="71" x2="674" y2="71" stroke="white" stroke-opacity="0.03" stroke-width="2" />
        <line y1="77" x2="674" y2="77" stroke="white" stroke-opacity="0.03" stroke-width="2" />
        <line y1="83" x2="674" y2="83" stroke="white" stroke-opacity="0.03" stroke-width="2" />
        <line y1="89" x2="674" y2="89" stroke="white" stroke-opacity="0.03" stroke-width="2" />
        <line y1="95" x2="674" y2="95" stroke="white" stroke-opacity="0.03" stroke-width="2" />
        <line y1="101" x2="674" y2="101" stroke="white" stroke-opacity="0.03" stroke-width="2" />
        <line y1="107" x2="674" y2="107" stroke="white" stroke-opacity="0.03" stroke-width="2" />
        <line y1="113" x2="674" y2="113" stroke="white" stroke-opacity="0.03" stroke-width="2" />
        <line y1="119" x2="674" y2="119" stroke="white" stroke-opacity="0.03" stroke-width="2" />
        <line y1="125" x2="674" y2="125" stroke="white" stroke-opacity="0.03" stroke-width="2" />
        <line y1="131" x2="674" y2="131" stroke="white" stroke-opacity="0.03" stroke-width="2" />
        <line y1="137" x2="674" y2="137" stroke="white" stroke-opacity="0.03" stroke-width="2" />
        <line y1="143" x2="674" y2="143" stroke="white" stroke-opacity="0.03" stroke-width="2" />
        <line y1="149" x2="674" y2="149" stroke="white" stroke-opacity="0.03" stroke-width="2" />
        <line y1="155" x2="674" y2="155" stroke="white" stroke-opacity="0.03" stroke-width="2" />
        <line y1="161" x2="674" y2="161" stroke="white" stroke-opacity="0.03" stroke-width="2" />
        <line y1="167" x2="674" y2="167" stroke="white" stroke-opacity="0.03" stroke-width="2" />
        <line y1="173" x2="674" y2="173" stroke="white" stroke-opacity="0.03" stroke-width="2" />
        <line y1="179" x2="674" y2="179" stroke="white" stroke-opacity="0.03" stroke-width="2" />
        <line y1="185" x2="674" y2="185" stroke="white" stroke-opacity="0.03" stroke-width="2" />
        <line y1="191" x2="674" y2="191" stroke="white" stroke-opacity="0.03" stroke-width="2" />
        <line y1="197" x2="674" y2="197" stroke="white" stroke-opacity="0.03" stroke-width="2" />
        <line y1="203" x2="674" y2="203" stroke="white" stroke-opacity="0.03" stroke-width="2" />
        <line y1="209" x2="674" y2="209" stroke="white" stroke-opacity="0.03" stroke-width="2" />
        <line y1="215" x2="674" y2="215" stroke="white" stroke-opacity="0.03" stroke-width="2" />
        <line y1="221" x2="674" y2="221" stroke="white" stroke-opacity="0.03" stroke-width="2" />
        <line y1="227" x2="674" y2="227" stroke="white" stroke-opacity="0.03" stroke-width="2" />
        <line y1="233" x2="674" y2="233" stroke="white" stroke-opacity="0.03" stroke-width="2" />
        <line y1="239" x2="674" y2="239" stroke="white" stroke-opacity="0.03" stroke-width="2" />
        <line y1="245" x2="674" y2="245" stroke="white" stroke-opacity="0.03" stroke-width="2" />
        <line y1="251" x2="674" y2="251" stroke="white" stroke-opacity="0.03" stroke-width="2" />
        <line y1="257" x2="674" y2="257" stroke="white" stroke-opacity="0.03" stroke-width="2" />
        <line y1="263" x2="674" y2="263" stroke="white" stroke-opacity="0.03" stroke-width="2" />
        <line y1="269" x2="674" y2="269" stroke="white" stroke-opacity="0.03" stroke-width="2" />
        <line y1="275" x2="674" y2="275" stroke="white" stroke-opacity="0.03" stroke-width="2" />
        <line y1="281" x2="674" y2="281" stroke="white" stroke-opacity="0.03" stroke-width="2" />
        <line y1="287" x2="674" y2="287" stroke="white" stroke-opacity="0.03" stroke-width="2" />
        <line y1="293" x2="674" y2="293" stroke="white" stroke-opacity="0.03" stroke-width="2" />
        <line y1="299" x2="674" y2="299" stroke="white" stroke-opacity="0.03" stroke-width="2" />
        <line y1="305" x2="674" y2="305" stroke="white" stroke-opacity="0.03" stroke-width="2" />
        <line y1="311" x2="674" y2="311" stroke="white" stroke-opacity="0.03" stroke-width="2" />
        <line y1="317" x2="674" y2="317" stroke="white" stroke-opacity="0.03" stroke-width="2" />
        <line y1="323" x2="674" y2="323" stroke="white" stroke-opacity="0.03" stroke-width="2" />
        <line y1="329" x2="674" y2="329" stroke="white" stroke-opacity="0.03" stroke-width="2" />
        <line y1="335" x2="674" y2="335" stroke="white" stroke-opacity="0.03" stroke-width="2" />
        <line y1="341" x2="674" y2="341" stroke="white" stroke-opacity="0.03" stroke-width="2" />
        <line y1="347" x2="674" y2="347" stroke="white" stroke-opacity="0.03" stroke-width="2" />
        <line y1="353" x2="674" y2="353" stroke="white" stroke-opacity="0.03" stroke-width="2" />
        <line y1="359" x2="674" y2="359" stroke="white" stroke-opacity="0.03" stroke-width="2" />
        <line y1="365" x2="674" y2="365" stroke="white" stroke-opacity="0.03" stroke-width="2" />
        <line y1="371" x2="674" y2="371" stroke="white" stroke-opacity="0.03" stroke-width="2" />
        <line y1="377" x2="674" y2="377" stroke="white" stroke-opacity="0.03" stroke-width="2" />
        <line y1="383" x2="674" y2="383" stroke="white" stroke-opacity="0.03" stroke-width="2" />
        <line y1="389" x2="674" y2="389" stroke="white" stroke-opacity="0.03" stroke-width="2" />
        <line y1="395" x2="674" y2="395" stroke="white" stroke-opacity="0.03" stroke-width="2" />
        <line y1="401" x2="674" y2="401" stroke="white" stroke-opacity="0.03" stroke-width="2" />
        <line y1="407" x2="674" y2="407" stroke="white" stroke-opacity="0.03" stroke-width="2" />
        <line y1="413" x2="674" y2="413" stroke="white" stroke-opacity="0.03" stroke-width="2" />
        <line y1="419" x2="674" y2="419" stroke="white" stroke-opacity="0.03" stroke-width="2" />
        <line y1="425" x2="674" y2="425" stroke="white" stroke-opacity="0.03" stroke-width="2" />
        <line y1="431" x2="674" y2="431" stroke="white" stroke-opacity="0.03" stroke-width="2" />
        <line y1="437" x2="674" y2="437" stroke="white" stroke-opacity="0.03" stroke-width="2" />
        <line y1="443" x2="674" y2="443" stroke="white" stroke-opacity="0.03" stroke-width="2" />
        <line y1="449" x2="674" y2="449" stroke="white" stroke-opacity="0.03" stroke-width="2" />
        <line y1="455" x2="674" y2="455" stroke="white" stroke-opacity="0.03" stroke-width="2" />
        <line y1="461" x2="674" y2="461" stroke="white" stroke-opacity="0.03" stroke-width="2" />
        <line y1="467" x2="674" y2="467" stroke="white" stroke-opacity="0.03" stroke-width="2" />
        <line y1="473" x2="674" y2="473" stroke="white" stroke-opacity="0.03" stroke-width="2" />
        <line y1="479" x2="674" y2="479" stroke="white" stroke-opacity="0.03" stroke-width="2" />
        <line y1="485" x2="674" y2="485" stroke="white" stroke-opacity="0.03" stroke-width="2" />
        <line y1="491" x2="674" y2="491" stroke="white" stroke-opacity="0.03" stroke-width="2" />
        <line y1="497" x2="674" y2="497" stroke="white" stroke-opacity="0.03" stroke-width="2" />
        <line y1="503" x2="674" y2="503" stroke="white" stroke-opacity="0.03" stroke-width="2" />
        <line y1="509" x2="674" y2="509" stroke="white" stroke-opacity="0.03" stroke-width="2" />
        <line y1="515" x2="674" y2="515" stroke="white" stroke-opacity="0.03" stroke-width="2" />
        <line y1="521" x2="674" y2="521" stroke="white" stroke-opacity="0.03" stroke-width="2" />
        <line y1="527" x2="674" y2="527" stroke="white" stroke-opacity="0.03" stroke-width="2" />
        <line y1="533" x2="674" y2="533" stroke="white" stroke-opacity="0.03" stroke-width="2" />
        <line y1="539" x2="674" y2="539" stroke="white" stroke-opacity="0.03" stroke-width="2" />
        <line y1="545" x2="674" y2="545" stroke="white" stroke-opacity="0.03" stroke-width="2" />
        <line y1="551" x2="674" y2="551" stroke="white" stroke-opacity="0.03" stroke-width="2" />
        <line y1="557" x2="674" y2="557" stroke="white" stroke-opacity="0.03" stroke-width="2" />
        <line y1="563" x2="674" y2="563" stroke="white" stroke-opacity="0.03" stroke-width="2" />
        <line y1="569" x2="674" y2="569" stroke="white" stroke-opacity="0.03" stroke-width="2" />
        <line y1="575" x2="674" y2="575" stroke="white" stroke-opacity="0.03" stroke-width="2" />
        <line y1="581" x2="674" y2="581" stroke="white" stroke-opacity="0.03" stroke-width="2" />
        <line y1="587" x2="674" y2="587" stroke="white" stroke-opacity="0.03" stroke-width="2" />
        <line y1="593" x2="674" y2="593" stroke="white" stroke-opacity="0.03" stroke-width="2" />
        <line y1="599" x2="674" y2="599" stroke="white" stroke-opacity="0.03" stroke-width="2" />
        <line y1="605" x2="674" y2="605" stroke="white" stroke-opacity="0.03" stroke-width="2" />
        <line y1="611" x2="674" y2="611" stroke="white" stroke-opacity="0.03" stroke-width="2" />
        <line y1="617" x2="674" y2="617" stroke="white" stroke-opacity="0.03" stroke-width="2" />
        <line y1="623" x2="674" y2="623" stroke="white" stroke-opacity="0.03" stroke-width="2" />
        <line y1="629" x2="674" y2="629" stroke="white" stroke-opacity="0.03" stroke-width="2" />
        <line y1="635" x2="674" y2="635" stroke="white" stroke-opacity="0.03" stroke-width="2" />
        <line y1="641" x2="674" y2="641" stroke="white" stroke-opacity="0.03" stroke-width="2" />
        <line y1="647" x2="674" y2="647" stroke="white" stroke-opacity="0.03" stroke-width="2" />
        <line y1="653" x2="674" y2="653" stroke="white" stroke-opacity="0.03" stroke-width="2" />
        <line y1="659" x2="674" y2="659" stroke="white" stroke-opacity="0.03" stroke-width="2" />
        <line y1="665" x2="674" y2="665" stroke="white" stroke-opacity="0.03" stroke-width="2" />
        <line y1="671" x2="674" y2="671" stroke="white" stroke-opacity="0.03" stroke-width="2" />
        <line y1="677" x2="674" y2="677" stroke="white" stroke-opacity="0.03" stroke-width="2" />
        <line y1="683" x2="674" y2="683" stroke="white" stroke-opacity="0.03" stroke-width="2" />
        <line y1="689" x2="674" y2="689" stroke="white" stroke-opacity="0.03" stroke-width="2" />
        <line y1="695" x2="674" y2="695" stroke="white" stroke-opacity="0.03" stroke-width="2" />
        <line y1="701" x2="674" y2="701" stroke="white" stroke-opacity="0.03" stroke-width="2" />
        <line y1="707" x2="674" y2="707" stroke="white" stroke-opacity="0.03" stroke-width="2" />
        <line y1="713" x2="674" y2="713" stroke="white" stroke-opacity="0.03" stroke-width="2" />
        <line y1="719" x2="674" y2="719" stroke="white" stroke-opacity="0.03" stroke-width="2" />
        <line y1="725" x2="674" y2="725" stroke="white" stroke-opacity="0.03" stroke-width="2" />
        <line y1="731" x2="674" y2="731" stroke="white" stroke-opacity="0.03" stroke-width="2" />
        <line y1="737" x2="674" y2="737" stroke="white" stroke-opacity="0.03" stroke-width="2" />
        <line y1="743" x2="674" y2="743" stroke="white" stroke-opacity="0.03" stroke-width="2" />
        <line y1="749" x2="674" y2="749" stroke="white" stroke-opacity="0.03" stroke-width="2" />
        <line y1="755" x2="674" y2="755" stroke="white" stroke-opacity="0.03" stroke-width="2" />
    </g>
    <defs>
        <clipPath id="clip0_126_18">
            <rect width="508" height="756" fill="white" />
        </clipPath>
    </defs>
</svg>
    